<svg xmlns="http://www.w3.org/2000/svg" viewBox="0 0 100 120"><rect width="100" height="120" rx="14" fill="#f7f4ee"/><g fill="none" stroke="#171614" stroke-width="6" stroke-linecap="round" stroke-linejoin="round"><rect x="7" y="7" width="86" height="106" rx="12" fill="#fff"/><path d="M66 7v30h27"/><path d="M66 37h27L66 7"/><path d="M30 75h40"/><path d="M35 75V62h30v13"/><path d="M28 75v9c0 9 8 14 22 14s22-5 22-14v-9"/><path d="M23 77h-8v9c0 5 4 9 8 9"/><path d="M77 77h8v9c0 5-4 9-8 9"/><path d="M38 57c-3-9 6-10 4-20"/><path d="M50 57c-3-9 6-10 4-20"/><path d="M62 57c-3-9 6-10 4-20"/></g></svg>